<svg xmlns="http://www.w3.org/2000/svg" viewBox="0 0 120 120" fill="none">
  <rect x="6" y="6" width="108" height="108" rx="12" stroke="#e79ac0" stroke-width="3"/>
  <g fill="#f6c3dc">
    <g transform="translate(11 11)">
      <circle cx="0" cy="-5" r="3.4"/><circle cx="4.8" cy="-1.5" r="3.4"/>
      <circle cx="3" cy="4.5" r="3.4"/><circle cx="-3" cy="4.5" r="3.4"/>
      <circle cx="-4.8" cy="-1.5" r="3.4"/><circle cx="0" cy="0" r="1.8" fill="#e0629a"/>
    </g>
    <g transform="translate(109 11)">
      <circle cx="0" cy="-5" r="3.4"/><circle cx="4.8" cy="-1.5" r="3.4"/>
      <circle cx="3" cy="4.5" r="3.4"/><circle cx="-3" cy="4.5" r="3.4"/>
      <circle cx="-4.8" cy="-1.5" r="3.4"/><circle cx="0" cy="0" r="1.8" fill="#e0629a"/>
    </g>
    <g transform="translate(109 109)">
      <circle cx="0" cy="-5" r="3.4"/><circle cx="4.8" cy="-1.5" r="3.4"/>
      <circle cx="3" cy="4.5" r="3.4"/><circle cx="-3" cy="4.5" r="3.4"/>
      <circle cx="-4.8" cy="-1.5" r="3.4"/><circle cx="0" cy="0" r="1.8" fill="#e0629a"/>
    </g>
    <g transform="translate(11 109)">
      <circle cx="0" cy="-5" r="3.4"/><circle cx="4.8" cy="-1.5" r="3.4"/>
      <circle cx="3" cy="4.5" r="3.4"/><circle cx="-3" cy="4.5" r="3.4"/>
      <circle cx="-4.8" cy="-1.5" r="3.4"/><circle cx="0" cy="0" r="1.8" fill="#e0629a"/>
    </g>
  </g>
</svg>
